<?xml version="1.0" encoding="UTF-8" standalone="no"?>
<svg width="32" height="32" viewBox="0 0 32 32" version="1.1" xmlns="http://www.w3.org/2000/svg">
    <path
        fill="#ffffff"
        stroke="none"
        d="M 16,29 4.7416699,22.5 4.7416696,9.5000003 16,3 27.25833,9.4999997 27.25833,22.5 Z" />
    <path
        fill="#2aff80"
        stroke="none"
        d="M 15.652344 1.0292969 A 2.0002 2.0002 0 0 0 15 1.2675781 L 3.7421875 7.7675781 A 2.0002 2.0002 0 0 0 3.0371094 8.515625 L 6.5 10.515625 A 2.0002 2.0002 0 0 1 7.2050781 9.7675781 L 15 5.2675781 A 2.0002 2.0002 0 0 1 16 5 A 2.0002 2.0002 0 0 1 17 5.2675781 L 24.794922 9.7675781 A 2.0002 2.0002 0 0 1 25.525391 10.5 L 28.988281 8.5 A 2.0002 2.0002 0 0 0 28.257812 7.7675781 L 17 1.2675781 A 2.0002 2.0002 0 0 0 15.652344 1.0292969 z " />
    <path
        fill="#004455"
        stroke="none"
        d="M 6.5 10.515625 L 3.0371094 8.515625 A 2.0002 2.0002 0 0 0 2.7421875 9.5 L 2.7421875 22.5 A 2.0002 2.0002 0 0 0 3.7421875 24.232422 L 15 30.732422 A 2.0002 2.0002 0 0 0 16 30.970703 L 16 26.970703 A 2.0002 2.0002 0 0 1 15 26.732422 L 7.2050781 22.232422 A 2.0002 2.0002 0 0 1 6.2050781 20.5 L 6.2050781 11.5 A 2.0002 2.0002 0 0 1 6.5 10.515625 z " />
    <path
        fill="#2a7fff"
        stroke="none"
        d="M 28.988281 8.5 L 25.525391 10.5 A 2.0002 2.0002 0 0 1 25.794922 11.5 L 25.794922 20.5 A 2.0002 2.0002 0 0 1 24.794922 22.232422 L 17 26.732422 A 2.0002 2.0002 0 0 1 16 26.970703 L 16 30.970703 A 2.0002 2.0002 0 0 0 17 30.732422 L 28.257812 24.232422 A 2.0002 2.0002 0 0 0 29.257812 22.5 L 29.257812 9.5 A 2.0002 2.0002 0 0 0 28.988281 8.5 z " />
    <path
        fill="#000000"
        stroke="none"
        d="m 20.8,12 h 2 v 5 h 2 l -3,3 -3,-3 h 2 z m -13,8 v -8 h 2 l 3,3 3,-3 h 2 v 8 h -2 v -5 l -3,3 -3,-3 v 5 z" />
</svg>
